<svg width="21" height="20" viewBox="0 0 21 20" fill="none" xmlns="http://www.w3.org/2000/svg">
  <g clip-path="url(#clip0_42_1403)">
    <path d="M10.3321 0.000488281C4.81923 0.000488281 0.332275 4.48744 0.332275 10.0003C0.332275 15.5132 4.81923 20.0002 10.3321 20.0002C15.845 20.0002 20.332 15.5132 20.332 10.0003C20.332 4.48744 15.845 0.000488281 10.3321 0.000488281ZM10.3321 1.66713C14.9443 1.66713 18.6653 5.38816 18.6653 10.0003C18.6653 14.1897 15.5918 17.6346 11.5723 18.2326V12.4303H13.9453L14.3181 10.0199H11.5723V8.70315C11.5723 7.70233 11.9011 6.81353 12.837 6.81353H14.3408V4.7107C14.0767 4.67487 13.5176 4.59677 12.461 4.59677C10.2544 4.59677 8.96169 5.76174 8.96169 8.41669V10.0199H6.69285V12.4303H8.96169V18.2115C5.00625 17.5591 1.99891 14.1445 1.99891 10.0003C1.99891 5.38816 5.71994 1.66713 10.3321 1.66713Z" fill="#709FDC"/>
  </g>
</svg>
