<svg width="21" height="20" viewBox="0 0 21 20" fill="none" xmlns="http://www.w3.org/2000/svg">
  <g clip-path="url(#clip0_42_1405)">
    <path d="M6.6203 0.178284C3.45001 0.178284 0.844727 2.78008 0.844727 5.95386V14.0452C0.844727 17.2155 3.44653 19.8208 6.6203 19.8208H14.7117C17.882 19.8208 20.4873 17.219 20.4873 14.0452V5.95386C20.4873 2.78357 17.8855 0.178284 14.7117 0.178284H6.6203ZM6.6203 1.96397H14.7117C16.9194 1.96397 18.7016 3.74617 18.7016 5.95386V14.0452C18.7016 16.2529 16.9194 18.0351 14.7117 18.0351H6.6203C4.41261 18.0351 2.63041 16.2529 2.63041 14.0452V5.95386C2.63041 3.74617 4.41261 1.96397 6.6203 1.96397ZM15.9393 3.91706C15.4894 3.91706 15.1302 4.27629 15.1302 4.7262C15.1302 5.17611 15.4894 5.53534 15.9393 5.53534C16.3893 5.53534 16.7485 5.17611 16.7485 4.7262C16.7485 4.27629 16.3893 3.91706 15.9393 3.91706ZM10.666 4.6425C7.71892 4.6425 5.30894 7.05247 5.30894 9.99955C5.30894 12.9466 7.71892 15.3566 10.666 15.3566C13.6131 15.3566 16.023 12.9466 16.023 9.99955C16.023 7.05247 13.6131 4.6425 10.666 4.6425ZM10.666 6.42818C12.6505 6.42818 14.2374 8.01507 14.2374 9.99955C14.2374 11.984 12.6505 13.5709 10.666 13.5709C8.68151 13.5709 7.09462 11.984 7.09462 9.99955C7.09462 8.01507 8.68151 6.42818 10.666 6.42818Z" fill="#709FDC"/>
  </g>
</svg>
