<svg width="24" height="24" viewBox="0 0 24 24" fill="none" xmlns="http://www.w3.org/2000/svg">
  <path d="M6.81128 3.74976C5.12964 3.74976 3.74976 5.12964 3.74976 6.81128V17.1882C3.74976 18.8699 5.12964 20.2498 6.81128 20.2498H17.1882C18.8699 20.2498 20.2498 18.8699 20.2498 17.1882V6.81128C20.2498 5.12964 18.8699 3.74976 17.1882 3.74976H6.81128ZM6.81128 5.24976H17.1882C18.0583 5.24976 18.7498 5.94116 18.7498 6.81128V17.1882C18.7498 18.0583 18.0583 18.7498 17.1882 18.7498H6.81128C5.94116 18.7498 5.24976 18.0583 5.24976 17.1882V6.81128C5.24976 5.94116 5.94116 5.24976 6.81128 5.24976ZM11.7888 9.17261C11.238 9.16675 10.7693 9.17261 10.5056 9.30151C10.3298 9.38647 10.1951 9.57983 10.2771 9.58862C10.3796 9.60327 10.6111 9.65308 10.7341 9.82007C10.8923 10.0339 10.8865 10.5173 10.8865 10.5173C10.8865 10.5173 10.9744 11.8474 10.6726 12.0144C10.4646 12.1287 10.1804 11.8972 9.56519 10.8396C9.25171 10.2947 9.0144 9.69409 9.0144 9.69409C9.0144 9.69409 8.97046 9.58276 8.88843 9.52417C8.78882 9.45093 8.65112 9.42749 8.65112 9.42749L7.18335 9.43628C7.18335 9.43628 6.96362 9.44507 6.88452 9.53882C6.81128 9.62671 6.87866 9.79956 6.87866 9.79956C6.87866 9.79956 8.0271 12.4861 9.32788 13.8396C10.5203 15.0818 11.8738 14.9998 11.8738 14.9998H12.489C12.489 14.9998 12.6736 14.9792 12.7673 14.8796C12.8552 14.7859 12.8523 14.6101 12.8523 14.6101C12.8523 14.6101 12.8406 13.7869 13.2214 13.6638C13.5994 13.5466 14.0798 14.4607 14.5925 14.8123C14.9822 15.0789 15.2781 15.0203 15.2781 15.0203L16.6492 14.9998C16.6492 14.9998 17.364 14.9558 17.0242 14.3904C16.9978 14.3464 16.8279 13.9744 16.0076 13.2126C15.1462 12.4158 15.2605 12.5447 16.2976 11.1648C16.9275 10.324 17.1794 9.81128 17.1003 9.58862C17.0242 9.38062 16.5613 9.43628 16.5613 9.43628L15.0173 9.44507C15.0173 9.44507 14.9031 9.43042 14.8181 9.48022C14.7361 9.53003 14.6833 9.64722 14.6833 9.64722C14.6833 9.64722 14.4373 10.2976 14.1121 10.8513C13.4265 12.0173 13.1482 12.0818 13.0369 12.0085C12.7761 11.8386 12.8406 11.3289 12.8406 10.9685C12.8406 9.83472 13.0134 9.36597 12.5066 9.24292C12.3396 9.2019 12.2166 9.17554 11.7888 9.17261Z" fill="#071739"/>
</svg>
