<svg xmlns="http://www.w3.org/2000/svg" width="30" height="30" viewBox="0 0 30 30" fill="none">
  <path d="M14.9993 0.000488281C6.7298 0.000488281 -0.000732422 6.73102 -0.000732422 15.0005C-0.000732422 23.27 6.7298 30.0005 14.9993 30.0005C23.2687 30.0005 29.9993 23.27 29.9993 15.0005C29.9993 6.73102 23.2687 0.000488281 14.9993 0.000488281ZM14.9993 2.50049C21.9176 2.50049 27.4993 8.08212 27.4993 15.0005C27.4993 21.2847 22.8889 26.4521 16.8596 27.3491V18.6455H20.4192L20.9783 15.0298H16.8596V13.0547C16.8596 11.5534 17.3528 10.2202 18.7566 10.2202H21.0125V7.06592C20.6162 7.01217 19.7776 6.89502 18.1926 6.89502C14.8826 6.89502 12.9436 8.6425 12.9436 12.625V15.0298H9.54028V18.6455H12.9436V27.3174C7.01034 26.3388 2.49927 21.2168 2.49927 15.0005C2.49927 8.08212 8.0809 2.50049 14.9993 2.50049Z" fill="#B9D5FD"/>
</svg>
