<svg width="24" height="24" viewBox="0 0 24 24" fill="none" xmlns="http://www.w3.org/2000/svg">
  <path d="M8.60181 3.74976C5.93872 3.74976 3.75024 5.9353 3.75024 8.60132V15.3982C3.75024 18.0613 5.93579 20.2498 8.60181 20.2498H15.3987C18.0618 20.2498 20.2502 18.0642 20.2502 15.3982V8.60132C20.2502 5.93823 18.0647 3.74976 15.3987 3.74976H8.60181ZM8.60181 5.24976H15.3987C17.2532 5.24976 18.7502 6.74683 18.7502 8.60132V15.3982C18.7502 17.2527 17.2532 18.7498 15.3987 18.7498H8.60181C6.74731 18.7498 5.25024 17.2527 5.25024 15.3982V8.60132C5.25024 6.74683 6.74731 5.24976 8.60181 5.24976ZM16.4299 6.89038C16.052 6.89038 15.7502 7.19214 15.7502 7.57007C15.7502 7.948 16.052 8.24976 16.4299 8.24976C16.8079 8.24976 17.1096 7.948 17.1096 7.57007C17.1096 7.19214 16.8079 6.89038 16.4299 6.89038ZM12.0002 7.49976C9.52466 7.49976 7.50024 9.52417 7.50024 11.9998C7.50024 14.4753 9.52466 16.4998 12.0002 16.4998C14.4758 16.4998 16.5002 14.4753 16.5002 11.9998C16.5002 9.52417 14.4758 7.49976 12.0002 7.49976ZM12.0002 8.99976C13.6672 8.99976 15.0002 10.3328 15.0002 11.9998C15.0002 13.6667 13.6672 14.9998 12.0002 14.9998C10.3333 14.9998 9.00024 13.6667 9.00024 11.9998C9.00024 10.3328 10.3333 8.99976 12.0002 8.99976Z" fill="#071739"/>
</svg>
